<?xml version="1.0" encoding="UTF-8" standalone="no"?>
<!DOCTYPE svg PUBLIC "-//W3C//DTD SVG 1.1//EN" "http://www.w3.org/Graphics/SVG/1.1/DTD/svg11.dtd">
<svg width="100%" height="100%" viewBox="0 0 1200 406" version="1.1" xmlns="http://www.w3.org/2000/svg" xmlns:xlink="http://www.w3.org/1999/xlink" xml:space="preserve" xmlns:serif="http://www.serif.com/" style="fill-rule:evenodd;clip-rule:evenodd;stroke-linejoin:round;stroke-miterlimit:2;">
    <g transform="matrix(1,0,0,1,-3,-1087)">
        <g id="Logo" transform="matrix(0.6,0,0,0.424586,1234.8,1088.943029)">
            <rect x="-2053" y="-4.576" width="2000" height="954.576" style="fill:none;"/>
            <clipPath id="_clip1">
                <rect x="-2053" y="-4.576" width="2000" height="954.576"/>
            </clipPath>
            <g clip-path="url(#_clip1)">
                <g transform="matrix(5.493132,0,0,9.370325,-4321.216601,-2361.961006)">
                    <g>
                        <g transform="matrix(0.70311,0,0,0.70311,232.768733,83.095499)">
                            <path d="M326.564,262.665C326.277,262.981 325.989,263.298 325.702,263.615C325.049,265.71 303.212,333.115 303.335,333.587C303.778,335.281 335.711,324.548 339.483,324.263C344.599,323.876 348.873,342.535 348.861,342.593C348.136,345.991 312.322,354.443 304.627,357.822C301.394,359.241 297.859,375.656 295.042,382.311C294.258,384.163 293.59,383.929 263.499,383.926C258.341,383.925 254.894,385.385 256.707,380.57C265.634,356.867 264.949,356.666 265.867,354.669C266.662,352.939 266.627,352.95 274.026,332.314C297.423,267.055 297.283,267.1 299.326,261.437C303.159,250.814 298.14,250.775 298.267,244.499C298.34,240.857 316.354,239.667 317.498,239.659C356.457,239.383 360.93,240.318 371.67,267.431C386.051,303.739 386.926,303.28 401.162,339.648C417.78,382.098 420.302,383.637 417.68,383.923C414.663,384.251 383.485,384.023 380.512,384.001C377.314,383.978 376.671,381.775 373.409,373.535C363.555,348.643 329.154,266.51 328.035,263.745C327.511,262.45 327.097,263.056 326.564,262.665Z" style="fill:rgb(246,133,31);"/>
                        </g>
                        <g transform="matrix(1,0,0,1,-0.597158,-0.222566)">
                            <path d="M690.676,343.649C692.817,341.141 692.799,341.153 692.988,340.94C704.527,327.931 704.585,328.108 716.11,315.193C718.328,312.707 716.079,312.697 713.985,310.117C688.288,278.453 683.68,278.559 686.669,276.848C687.356,276.455 707.666,276.869 709.492,276.906C711.573,276.949 712.945,278.545 713.16,278.796C727.669,295.676 727.425,295.864 728.695,297.323C731.162,300.158 731.806,298.256 735.352,294.362C749.767,278.535 749.11,276.901 753.497,276.899C772.26,276.89 777.122,276.307 774.952,278.682C772.573,281.285 759.281,295.83 745.888,311.826C743.8,314.321 746.047,316.252 748.797,319.237C754.535,325.463 776.084,350.404 776.931,351.276C779.444,353.864 775.58,353.112 754.498,353.275C749.294,353.315 732.993,329.236 730.515,329.17C729.087,329.132 713.07,348.431 709.293,352.302C707.454,354.186 705.54,352.665 684.513,353.402C681.609,353.504 683.6,351.546 690.676,343.649Z" style="fill:rgb(253,253,253);"/>
                        </g>
                        <path d="M623.132,324.495C622.704,318.042 620.844,318.816 614.047,309.828C590.989,279.332 588.059,280.758 588.457,277.482C588.568,276.568 593.172,276.897 598.502,276.89C608.37,276.877 610.088,273.95 616.093,281.811C617.413,283.539 628.265,297.745 632.767,303.278C634.69,305.642 635.224,303.154 654.768,278.709C657.719,275.019 658.705,277.059 675.5,276.895C678.537,276.866 680.523,275.647 679.684,278.573C679.424,279.481 648.575,316.486 645.844,319.762C644.501,321.373 644.854,323.441 644.811,344.5C644.799,350.504 646.522,353.186 640.499,353.247C639.224,353.26 626.653,353.388 624.557,353.19C622.777,353.021 623.121,351.514 623.132,324.495Z" style="fill:rgb(253,253,253);"/>
                        <path d="M533.869,344.5C533.867,343.575 533.82,278.84 533.893,278.552C534.275,277.028 534.597,275.742 553.464,276.91C555.889,277.06 555.294,279.724 555.348,304.499C555.414,334.281 555.144,335.421 555.805,336.242C556.904,337.607 600.887,336.592 603.429,336.833C605.207,337.002 604.096,339.088 604.002,339.265C597.482,351.516 597.977,353.198 592.5,353.252C587.878,353.297 536.515,353.797 534.726,353.006C533.878,352.632 533.87,345.184 533.869,344.5Z" style="fill:rgb(253,253,253);"/>
                    </g>
                </g>
            </g>
        </g>
    </g>
</svg>
